<svg>
     <defs>
     <clipPath id="myClip">
        <path class="st0" d="M134.7,20.9c11,3.5,20.8-3.9,32.3,4.2c11.4,8.2,7.7,19.9,14.6,29.3c6.9,9.3,19.1,9.1,23.6,22.5
          c4.5,13.4-5.4,20.7-5.3,32.3c0.1,11.6,10.1,18.7,5.9,32.2c-4.2,13.5-16.5,13.6-23.2,23c-6.7,9.5-2.8,21.2-14,29.6
          c-11.3,8.4-21.2,1.2-32.2,5c-11,3.7-14.6,15.5-28.6,15.7c-14,0.2-17.9-11.6-28.9-15c-11-3.5-20.8,3.9-32.3-4.2
          c-11.4-8.2-7.7-19.9-14.6-29.3c-6.9-9.3-19.1-9.1-23.6-22.5c-4.5-13.4,5.4-20.7,5.3-32.3C13.6,99.7,3.5,92.6,7.7,79.2
          c4.2-13.5,16.5-13.6,23.2-23c6.7-9.5,2.8-21.2,14-29.6c11.3-8.4,21.2-1.2,32.2-5c11-3.7,14.6-15.5,28.6-15.7
          C119.8,5.7,123.6,17.4,134.7,20.9z"/>
      </clipPath>
    </defs>
  </svg>
